<svg version="1.1" xmlns="http://www.w3.org/2000/svg" xmlns:xlink="http://www.w3.org/1999/xlink" width="844" height="668"><defs/><g><g transform="translate(-38,-142) scale(1,1)"><rect fill="#C0C0C0" stroke="none" x="55" y="159" width="329.6" height="15" opacity="0.2"/></g><g transform="translate(-38,-142) scale(1,1)"><rect fill="#C0C0C0" stroke="none" x="55" y="173" width="824" height="634" opacity="0.2"/></g><g transform="translate(-38,-142) scale(1,1)"><rect fill="#ffffd8" stroke="none" x="48" y="167" width="824" height="633"/></g><g transform="translate(-38,-142) scale(1,1)"><path fill="none" stroke="#d8d800" d="M 48 167 L 872 167 L 872 800 L 48 800 L 48 167 Z Z" stroke-miterlimit="10"/></g><g transform="translate(-38,-142) scale(1,1)"><rect fill="#ffffd8" stroke="none" x="48" y="152" width="329.6" height="15"/></g><g transform="translate(-38,-142) scale(1,1)"><path fill="none" stroke="#d8d800" d="M 48 152 L 377.6 152 L 377.6 167 L 48 167 L 48 152 Z Z" stroke-miterlimit="10"/></g><g transform="translate(-38,-142) scale(1,1)"><rect fill="#ffffd8" stroke="none" x="48" y="166" width="824" height="634"/></g><g transform="translate(-38,-142) scale(1,1)"><path fill="none" stroke="#d8d800" d="M 48 166 L 872 166 L 872 800 L 48 800 L 48 166 Z Z" stroke-miterlimit="10"/></g><g transform="translate(-38,-142) scale(1,1)"><g><path fill="none" stroke="none"/><text fill="#000000" stroke="none" font-family="Arial" font-size="13px" font-style="normal" font-weight="bold" text-decoration="none" x="439.405029296875" y="186.5">Feeder</text></g></g><g transform="translate(-38,-142) scale(1,1)"><path fill="none" stroke="#000000" d="M 248 440 L 248 312" stroke-miterlimit="10" stroke-dasharray="3"/></g><g transform="translate(-38,-142) scale(1,1)"><path fill="#FFFFFF" stroke="none" d="M 256.419035512032 332.3253497152483 L 248 312 L 239.58096448796803 332.3253497152483"/></g><g transform="translate(-38,-142) scale(1,1)"><path fill="none" stroke="#000000" d="M 256.419035512032 332.3253497152483 L 248 312 L 239.58096448796803 332.3253497152483 L 256.419035512032 332.3253497152483" stroke-miterlimit="10"/></g><g transform="translate(-38,-142) scale(1,1)"><path fill="none" stroke="#000000" d="M 650 463 L 652 321" stroke-miterlimit="10" stroke-dasharray="3"/></g><g transform="translate(-38,-142) scale(1,1)"><path fill="#FFFFFF" stroke="none" d="M 660.1319564391542 341.4419002167533 L 652 321 L 643.2955552788345 341.2047678060446"/></g><g transform="translate(-38,-142) scale(1,1)"><path fill="none" stroke="#000000" d="M 660.1319564391542 341.4419002167533 L 652 321 L 643.2955552788345 341.2047678060446 L 660.1319564391542 341.4419002167533" stroke-miterlimit="10"/></g><g transform="translate(-38,-142) scale(1,1)"><path fill="none" stroke="#000000" d="M 249 710 L 248 541" stroke-miterlimit="10"/></g><g transform="translate(-38,-142) scale(1,1)"><path fill="#FFFFFF" stroke="none" d="M 256.53915436508566 561.2751779950075 L 248 541 L 239.70137810711665 561.3748098071849"/></g><g transform="translate(-38,-142) scale(1,1)"><path fill="none" stroke="#000000" d="M 256.53915436508566 561.2751779950075 L 248 541 L 239.70137810711665 561.3748098071849 L 256.53915436508566 561.2751779950075" stroke-miterlimit="10"/></g><g transform="translate(-38,-142) scale(1,1)"><path fill="none" stroke="#000000" d="M 353 710 L 272 541" stroke-miterlimit="10"/></g><g transform="translate(-38,-142) scale(1,1)"><path fill="#FFFFFF" stroke="none" d="M 288.37688772635397 555.6900492987054 L 272 541 L 273.19277489095634 562.967641841115"/></g><g transform="translate(-38,-142) scale(1,1)"><path fill="none" stroke="#000000" d="M 288.37688772635397 555.6900492987054 L 272 541 L 273.19277489095634 562.967641841115 L 288.37688772635397 555.6900492987054" stroke-miterlimit="10"/></g><g transform="translate(-38,-142) scale(1,1)"><path fill="none" stroke="#000000" d="M 144 710 L 224 541" stroke-miterlimit="10"/></g><g transform="translate(-38,-142) scale(1,1)"><path fill="#FFFFFF" stroke="none" d="M 222.91318596590787 562.9731389486186 L 224 541 L 207.69415087208228 555.7688619811272"/></g><g transform="translate(-38,-142) scale(1,1)"><path fill="none" stroke="#000000" d="M 222.91318596590787 562.9731389486186 L 224 541 L 207.69415087208228 555.7688619811272 L 222.91318596590787 562.9731389486186" stroke-miterlimit="10"/></g><g transform="translate(-38,-142) scale(1,1)"><path fill="none" stroke="#000000" d="M 536 710 L 625 550" stroke-miterlimit="10"/></g><g transform="translate(-38,-142) scale(1,1)"><path fill="#FFFFFF" stroke="none" d="M 622.4771042931433 571.8548620963923 L 625 550 L 607.7623221471994 563.669764527711"/></g><g transform="translate(-38,-142) scale(1,1)"><path fill="none" stroke="#000000" d="M 622.4771042931433 571.8548620963923 L 625 550 L 607.7623221471994 563.669764527711 L 622.4771042931433 571.8548620963923" stroke-miterlimit="10"/></g><g transform="translate(-38,-142) scale(1,1)"><path fill="none" stroke="#000000" d="M 646 710 L 649 550" stroke-miterlimit="10"/></g><g transform="translate(-38,-142) scale(1,1)"><path fill="#FFFFFF" stroke="none" d="M 657.0365226590111 570.4796070165226 L 649 550 L 640.2014106719273 570.1639486667648"/></g><g transform="translate(-38,-142) scale(1,1)"><path fill="none" stroke="#000000" d="M 657.0365226590111 570.4796070165226 L 649 550 L 640.2014106719273 570.1639486667648 L 657.0365226590111 570.4796070165226" stroke-miterlimit="10"/></g><g transform="translate(-38,-142) scale(1,1)"><path fill="none" stroke="#000000" d="M 759 710 L 673 550" stroke-miterlimit="10"/></g><g transform="translate(-38,-142) scale(1,1)"><path fill="#FFFFFF" stroke="none" d="M 690.0385887283868 563.9171295224587 L 673 550 L 675.207204971709 571.888998291673"/></g><g transform="translate(-38,-142) scale(1,1)"><path fill="none" stroke="#000000" d="M 690.0385887283868 563.9171295224587 L 673 550 L 675.207204971709 571.888998291673 L 690.0385887283868 563.9171295224587" stroke-miterlimit="10"/></g><g transform="translate(-38,-142) scale(1,1)"><rect fill="#C0C0C0" stroke="none" x="183" y="239" width="144" height="80" opacity="0.2"/></g><g transform="translate(-38,-142) scale(1,1)"><rect fill="#ffffff" stroke="none" x="176" y="232" width="144" height="80"/></g><g transform="translate(-38,-142) scale(1,1)"><path fill="none" stroke="#000000" d="M 176 232 L 320 232 L 320 312 L 176 312 L 176 232 Z Z" stroke-miterlimit="10"/></g><g transform="translate(-38,-142) scale(1,1)"><path fill="#ffffff" stroke="none" d="M 294 249 C 294 244.0294368 298.0294368 240 303 240 C 307.9705632 240 312 244.0294368 312 249 C 312 253.9705632 307.9705632 258 303 258 C 298.0294368 258 294 253.9705632 294 249 Z"/></g><g transform="translate(-38,-142) scale(1,1)"><path fill="none" stroke="#000000" d="M 294 249 C 294 244.0294368 298.0294368 240 303 240 C 307.9705632 240 312 244.0294368 312 249 C 312 253.9705632 307.9705632 258 303 258 C 298.0294368 258 294 253.9705632 294 249 Z" stroke-miterlimit="10"/></g><g transform="translate(-38,-142) scale(1,1)"><path fill="none" stroke="#000000" d="M 176 270 L 320 270" stroke-miterlimit="10"/></g><g transform="translate(-38,-142) scale(1,1)"><g><path fill="none" stroke="none"/><text fill="#000000" stroke="none" font-family="Arial" font-size="13px" font-style="normal" font-weight="normal" text-decoration="none" x="203.839599609375" y="249.5">«interface»</text></g></g><g transform="translate(-38,-142) scale(1,1)"><g><path fill="none" stroke="none"/><text fill="#000000" stroke="none" font-family="Arial" font-size="13px" font-style="normal" font-weight="bold" text-decoration="none" x="189.392333984375" y="264.5">ReadsResource</text></g></g><g transform="translate(-38,-142) scale(1,1)"><g><path fill="none" stroke="none"/><text fill="#000000" stroke="none" font-family="Arial" font-size="13px" font-style="normal" font-weight="normal" text-decoration="none" x="181" y="287.5">+read(): String</text></g></g><g transform="translate(-38,-142) scale(1,1)"><rect fill="#C0C0C0" stroke="none" x="191" y="447" width="128" height="100" opacity="0.2"/></g><g transform="translate(-38,-142) scale(1,1)"><rect fill="#ffffff" stroke="none" x="184" y="440" width="128" height="100"/></g><g transform="translate(-38,-142) scale(1,1)"><path fill="none" stroke="#000000" d="M 184 440 L 312 440 L 312 540 L 184 540 L 184 440 Z Z" stroke-miterlimit="10"/></g><g transform="translate(-38,-142) scale(1,1)"><path fill="none" stroke="#000000" d="M 184 465 L 312 465" stroke-miterlimit="10"/></g><g transform="translate(-38,-142) scale(1,1)"><path fill="none" stroke="#000000" d="M 184 488 L 312 488" stroke-miterlimit="10"/></g><g transform="translate(-38,-142) scale(1,1)"><g><path fill="none" stroke="none"/><text fill="#000000" stroke="none" font-family="Arial" font-size="13px" font-style="italic" font-weight="bold" text-decoration="none" x="220.181396484375" y="459.5">Resource</text></g></g><g transform="translate(-38,-142) scale(1,1)"><g><path fill="none" stroke="none"/><text fill="#000000" stroke="none" font-family="Arial" font-size="13px" font-style="normal" font-weight="normal" text-decoration="none" x="189" y="482.5">-url: String</text></g></g><g transform="translate(-38,-142) scale(1,1)"><g><path fill="none" stroke="none"/><text fill="#000000" stroke="none" font-family="Arial" font-size="13px" font-style="normal" font-weight="normal" text-decoration="none" x="189" y="505.5">+url()</text></g></g><g transform="translate(-38,-142) scale(1,1)"><g><path fill="none" stroke="none"/><text fill="#000000" stroke="none" font-family="Arial" font-size="13px" font-style="italic" font-weight="normal" text-decoration="none" x="189" y="520.5">+read(): String</text></g></g><g transform="translate(-38,-142) scale(1,1)"><g><path fill="none" stroke="none"/><text fill="#000000" stroke="none" font-family="Arial" font-size="13px" font-style="italic" font-weight="normal" text-decoration="none" x="189" y="535.5">+assertUrl()</text></g></g><g transform="translate(-38,-142) scale(1,1)"><rect fill="#C0C0C0" stroke="none" x="205" y="718" width="102.20263671875" height="48" opacity="0.2"/></g><g transform="translate(-38,-142) scale(1,1)"><rect fill="#ffffff" stroke="none" x="198" y="711" width="102.20263671875" height="48"/></g><g transform="translate(-38,-142) scale(1,1)"><path fill="none" stroke="#000000" d="M 198 711 L 300.20263671875 711 L 300.20263671875 759 L 198 759 L 198 711 Z Z" stroke-miterlimit="10"/></g><g transform="translate(-38,-142) scale(1,1)"><path fill="none" stroke="#000000" d="M 198 736 L 300.20263671875 736" stroke-miterlimit="10"/></g><g transform="translate(-38,-142) scale(1,1)"><path fill="none" stroke="#000000" d="M 198 746 L 300.20263671875 746" stroke-miterlimit="10"/></g><g transform="translate(-38,-142) scale(1,1)"><g><path fill="none" stroke="none"/><text fill="#000000" stroke="none" font-family="Arial" font-size="13px" font-style="normal" font-weight="bold" text-decoration="none" x="205.74365234375" y="730.5">LocalResource</text></g></g><g transform="translate(-38,-142) scale(1,1)"><rect fill="#C0C0C0" stroke="none" x="325" y="718" width="92.8017578125" height="44" opacity="0.2"/></g><g transform="translate(-38,-142) scale(1,1)"><rect fill="#ffffff" stroke="none" x="318" y="711" width="92.8017578125" height="44"/></g><g transform="translate(-38,-142) scale(1,1)"><path fill="none" stroke="#000000" d="M 318 711 L 410.8017578125 711 L 410.8017578125 755 L 318 755 L 318 711 Z Z" stroke-miterlimit="10"/></g><g transform="translate(-38,-142) scale(1,1)"><path fill="none" stroke="#000000" d="M 318 736 L 410.8017578125 736" stroke-miterlimit="10"/></g><g transform="translate(-38,-142) scale(1,1)"><path fill="none" stroke="#000000" d="M 318 746 L 410.8017578125 746" stroke-miterlimit="10"/></g><g transform="translate(-38,-142) scale(1,1)"><g><path fill="none" stroke="none"/><text fill="#000000" stroke="none" font-family="Arial" font-size="13px" font-style="normal" font-weight="bold" text-decoration="none" x="327.19091796875" y="730.5">FtpResource</text></g></g><g transform="translate(-38,-142) scale(1,1)"><rect fill="#C0C0C0" stroke="none" x="93" y="718" width="94.236328125" height="44" opacity="0.2"/></g><g transform="translate(-38,-142) scale(1,1)"><rect fill="#ffffff" stroke="none" x="86" y="711" width="94.236328125" height="44"/></g><g transform="translate(-38,-142) scale(1,1)"><path fill="none" stroke="#000000" d="M 86 711 L 180.236328125 711 L 180.236328125 755 L 86 755 L 86 711 Z Z" stroke-miterlimit="10"/></g><g transform="translate(-38,-142) scale(1,1)"><path fill="none" stroke="#000000" d="M 86 736 L 180.236328125 736" stroke-miterlimit="10"/></g><g transform="translate(-38,-142) scale(1,1)"><path fill="none" stroke="#000000" d="M 86 746 L 180.236328125 746" stroke-miterlimit="10"/></g><g transform="translate(-38,-142) scale(1,1)"><g><path fill="none" stroke="none"/><text fill="#000000" stroke="none" font-family="Arial" font-size="13px" font-style="normal" font-weight="bold" text-decoration="none" x="93.378662109375" y="730.5">HttpResource</text></g></g><g transform="translate(-38,-142) scale(1,1)"><rect fill="#C0C0C0" stroke="none" x="591" y="247" width="136" height="80" opacity="0.2"/></g><g transform="translate(-38,-142) scale(1,1)"><rect fill="#ffffff" stroke="none" x="584" y="240" width="136" height="80"/></g><g transform="translate(-38,-142) scale(1,1)"><path fill="none" stroke="#000000" d="M 584 240 L 720 240 L 720 320 L 584 320 L 584 240 Z Z" stroke-miterlimit="10"/></g><g transform="translate(-38,-142) scale(1,1)"><path fill="#ffffff" stroke="none" d="M 694 257 C 694 252.0294368 698.0294368 248 703 248 C 707.9705632 248 712 252.0294368 712 257 C 712 261.9705632 707.9705632 266 703 266 C 698.0294368 266 694 261.9705632 694 257 Z"/></g><g transform="translate(-38,-142) scale(1,1)"><path fill="none" stroke="#000000" d="M 694 257 C 694 252.0294368 698.0294368 248 703 248 C 707.9705632 248 712 252.0294368 712 257 C 712 261.9705632 707.9705632 266 703 266 C 698.0294368 266 694 261.9705632 694 257 Z" stroke-miterlimit="10"/></g><g transform="translate(-38,-142) scale(1,1)"><path fill="none" stroke="#000000" d="M 584 278 L 720 278" stroke-miterlimit="10"/></g><g transform="translate(-38,-142) scale(1,1)"><g><path fill="none" stroke="none"/><text fill="#000000" stroke="none" font-family="Arial" font-size="13px" font-style="normal" font-weight="normal" text-decoration="none" x="607.839599609375" y="257.5">«interface»</text></g></g><g transform="translate(-38,-142) scale(1,1)"><g><path fill="none" stroke="none"/><text fill="#000000" stroke="none" font-family="Arial" font-size="13px" font-style="normal" font-weight="bold" text-decoration="none" x="606.3955078125" y="272.5">ReadsFeed</text></g></g><g transform="translate(-38,-142) scale(1,1)"><g><path fill="none" stroke="none"/><text fill="#000000" stroke="none" font-family="Arial" font-size="13px" font-style="normal" font-weight="normal" text-decoration="none" x="589" y="295.5">+read(): Array</text></g></g><g transform="translate(-38,-142) scale(1,1)"><rect fill="#C0C0C0" stroke="none" x="575" y="471" width="164.34619140625" height="85" opacity="0.2"/></g><g transform="translate(-38,-142) scale(1,1)"><rect fill="#ffffff" stroke="none" x="568" y="464" width="164.34619140625" height="85"/></g><g transform="translate(-38,-142) scale(1,1)"><path fill="none" stroke="#000000" d="M 568 464 L 732.34619140625 464 L 732.34619140625 549 L 568 549 L 568 464 Z Z" stroke-miterlimit="10"/></g><g transform="translate(-38,-142) scale(1,1)"><path fill="none" stroke="#000000" d="M 568 489 L 732.34619140625 489" stroke-miterlimit="10"/></g><g transform="translate(-38,-142) scale(1,1)"><path fill="none" stroke="#000000" d="M 568 512 L 732.34619140625 512" stroke-miterlimit="10"/></g><g transform="translate(-38,-142) scale(1,1)"><g><path fill="none" stroke="none"/><text fill="#000000" stroke="none" font-family="Arial" font-size="13px" font-style="italic" font-weight="bold" text-decoration="none" x="614.0390625" y="483.5">FeedReader</text></g></g><g transform="translate(-38,-142) scale(1,1)"><g><path fill="none" stroke="none"/><text fill="#000000" stroke="none" font-family="Arial" font-size="13px" font-style="normal" font-weight="normal" text-decoration="none" x="573" y="506.5">-resource: ReadsResource</text></g></g><g transform="translate(-38,-142) scale(1,1)"><g><path fill="none" stroke="none"/><text fill="#000000" stroke="none" font-family="Arial" font-size="13px" font-style="italic" font-weight="normal" text-decoration="none" x="573" y="529.5">+read(): Array</text></g></g><g transform="translate(-38,-142) scale(1,1)"><g><path fill="none" stroke="none"/><text fill="#000000" stroke="none" font-family="Arial" font-size="13px" font-style="normal" font-weight="normal" text-decoration="none" x="573" y="544.5">+resource()</text></g></g><g transform="translate(-38,-142) scale(1,1)"><rect fill="#C0C0C0" stroke="none" x="477" y="718" width="107.26171875" height="44" opacity="0.2"/></g><g transform="translate(-38,-142) scale(1,1)"><rect fill="#ffffff" stroke="none" x="470" y="711" width="107.26171875" height="44"/></g><g transform="translate(-38,-142) scale(1,1)"><path fill="none" stroke="#000000" d="M 470 711 L 577.26171875 711 L 577.26171875 755 L 470 755 L 470 711 Z Z" stroke-miterlimit="10"/></g><g transform="translate(-38,-142) scale(1,1)"><path fill="none" stroke="#000000" d="M 470 736 L 577.26171875 736" stroke-miterlimit="10"/></g><g transform="translate(-38,-142) scale(1,1)"><path fill="none" stroke="#000000" d="M 470 746 L 577.26171875 746" stroke-miterlimit="10"/></g><g transform="translate(-38,-142) scale(1,1)"><g><path fill="none" stroke="none"/><text fill="#000000" stroke="none" font-family="Arial" font-size="13px" font-style="normal" font-weight="bold" text-decoration="none" x="476.302734375" y="730.5">XmlFeedReader</text></g></g><g transform="translate(-38,-142) scale(1,1)"><rect fill="#C0C0C0" stroke="none" x="725" y="718" width="107.26806640625" height="44" opacity="0.2"/></g><g transform="translate(-38,-142) scale(1,1)"><rect fill="#ffffff" stroke="none" x="718" y="711" width="107.26806640625" height="44"/></g><g transform="translate(-38,-142) scale(1,1)"><path fill="none" stroke="#000000" d="M 718 711 L 825.26806640625 711 L 825.26806640625 755 L 718 755 L 718 711 Z Z" stroke-miterlimit="10"/></g><g transform="translate(-38,-142) scale(1,1)"><path fill="none" stroke="#000000" d="M 718 736 L 825.26806640625 736" stroke-miterlimit="10"/></g><g transform="translate(-38,-142) scale(1,1)"><path fill="none" stroke="#000000" d="M 718 746 L 825.26806640625 746" stroke-miterlimit="10"/></g><g transform="translate(-38,-142) scale(1,1)"><g><path fill="none" stroke="none"/><text fill="#000000" stroke="none" font-family="Arial" font-size="13px" font-style="normal" font-weight="bold" text-decoration="none" x="724.305908203125" y="730.5">CsvFeedReader</text></g></g><g transform="translate(-38,-142) scale(1,1)"><rect fill="#C0C0C0" stroke="none" x="597" y="718" width="113.76171875" height="44" opacity="0.2"/></g><g transform="translate(-38,-142) scale(1,1)"><rect fill="#ffffff" stroke="none" x="590" y="711" width="113.76171875" height="44"/></g><g transform="translate(-38,-142) scale(1,1)"><path fill="none" stroke="#000000" d="M 590 711 L 703.76171875 711 L 703.76171875 755 L 590 755 L 590 711 Z Z" stroke-miterlimit="10"/></g><g transform="translate(-38,-142) scale(1,1)"><path fill="none" stroke="#000000" d="M 590 736 L 703.76171875 736" stroke-miterlimit="10"/></g><g transform="translate(-38,-142) scale(1,1)"><path fill="none" stroke="#000000" d="M 590 746 L 703.76171875 746" stroke-miterlimit="10"/></g><g transform="translate(-38,-142) scale(1,1)"><g><path fill="none" stroke="none"/><text fill="#000000" stroke="none" font-family="Arial" font-size="13px" font-style="normal" font-weight="bold" text-decoration="none" x="597.016845703125" y="730.5">JsonFeedReader</text></g></g></g></svg>