<svg version="1.1" xmlns="http://www.w3.org/2000/svg" xmlns:xlink="http://www.w3.org/1999/xlink" width="844" height="668"><defs/><g><g transform="translate(-38,-142) scale(1,1)"><rect fill="#C0C0C0" stroke="none" x="55" y="159" width="329.6" height="15" opacity="0.2"/></g><g transform="translate(-38,-142) scale(1,1)"><rect fill="#C0C0C0" stroke="none" x="55" y="173" width="824" height="634" opacity="0.2"/></g><g transform="translate(-38,-142) scale(1,1)"><rect fill="#ffffd8" stroke="none" x="48" y="167" width="824" height="633"/></g><g transform="translate(-38,-142) scale(1,1)"><path fill="none" stroke="#d8d800" d="M 48 167 L 872 167 L 872 800 L 48 800 L 48 167 Z Z" stroke-miterlimit="10"/></g><g transform="translate(-38,-142) scale(1,1)"><rect fill="#ffffd8" stroke="none" x="48" y="152" width="329.6" height="15"/></g><g transform="translate(-38,-142) scale(1,1)"><path fill="none" stroke="#d8d800" d="M 48 152 L 377.6 152 L 377.6 167 L 48 167 L 48 152 Z Z" stroke-miterlimit="10"/></g><g transform="translate(-38,-142) scale(1,1)"><rect fill="#ffffd8" stroke="none" x="48" y="166" width="824" height="634"/></g><g transform="translate(-38,-142) scale(1,1)"><path fill="none" stroke="#d8d800" d="M 48 166 L 872 166 L 872 800 L 48 800 L 48 166 Z Z" stroke-miterlimit="10"/></g><g transform="translate(-38,-142) scale(1,1)"><g><path fill="none" stroke="none"/><text fill="#000000" stroke="none" font-family="Arial" font-size="13px" font-style="normal" font-weight="bold" text-decoration="none" x="439.405029296875" y="186.5">Feeder</text></g></g><g transform="translate(-38,-142) scale(1,1)"><path fill="none" stroke="#000000" d="M 248 440 L 248 312" stroke-miterlimit="10" stroke-dasharray="3"/></g><g transform="translate(-38,-142) scale(1,1)"><path fill="#FFFFFF" stroke="none" d="M 256.419035512032 332.3253497152483 L 248 312 L 239.58096448796803 332.3253497152483"/></g><g transform="translate(-38,-142) scale(1,1)"><path fill="none" stroke="#000000" d="M 256.419035512032 332.3253497152483 L 248 312 L 239.58096448796803 332.3253497152483 L 256.419035512032 332.3253497152483" stroke-miterlimit="10"/></g><g transform="translate(-38,-142) scale(1,1)"><path fill="none" stroke="#000000" d="M 657 423 L 653 305" stroke-miterlimit="10" stroke-dasharray="3"/></g><g transform="translate(-38,-142) scale(1,1)"><path fill="#FFFFFF" stroke="none" d="M 662.1028019267219 325.0284546853438 L 653 305 L 645.2743968454889 325.59890909487706"/></g><g transform="translate(-38,-142) scale(1,1)"><path fill="none" stroke="#000000" d="M 662.1028019267219 325.0284546853438 L 653 305 L 645.2743968454889 325.59890909487706 L 662.1028019267219 325.0284546853438" stroke-miterlimit="10"/></g><g transform="translate(-38,-142) scale(1,1)"><path fill="none" stroke="#000000" d="M 249 710 L 249 541" stroke-miterlimit="10"/></g><g transform="translate(-38,-142) scale(1,1)"><path fill="#FFFFFF" stroke="none" d="M 257.419035512032 561.3253497152483 L 249 541 L 240.58096448796803 561.3253497152483"/></g><g transform="translate(-38,-142) scale(1,1)"><path fill="none" stroke="#000000" d="M 257.419035512032 561.3253497152483 L 249 541 L 240.58096448796803 561.3253497152483 L 257.419035512032 561.3253497152483" stroke-miterlimit="10"/></g><g transform="translate(-38,-142) scale(1,1)"><path fill="none" stroke="#000000" d="M 353 710 L 273 541" stroke-miterlimit="10"/></g><g transform="translate(-38,-142) scale(1,1)"><path fill="#FFFFFF" stroke="none" d="M 289.3058491279177 555.7688619811272 L 273 541 L 274.08681403409213 562.9731389486186"/></g><g transform="translate(-38,-142) scale(1,1)"><path fill="none" stroke="#000000" d="M 289.3058491279177 555.7688619811272 L 273 541 L 274.08681403409213 562.9731389486186 L 289.3058491279177 555.7688619811272" stroke-miterlimit="10"/></g><g transform="translate(-38,-142) scale(1,1)"><path fill="none" stroke="#000000" d="M 144 710 L 225 541" stroke-miterlimit="10"/></g><g transform="translate(-38,-142) scale(1,1)"><path fill="#FFFFFF" stroke="none" d="M 223.80722510904363 562.967641841115 L 225 541 L 208.623112273646 555.6900492987054"/></g><g transform="translate(-38,-142) scale(1,1)"><path fill="none" stroke="#000000" d="M 223.80722510904363 562.967641841115 L 225 541 L 208.623112273646 555.6900492987054 L 223.80722510904363 562.967641841115" stroke-miterlimit="10"/></g><g transform="translate(-38,-142) scale(1,1)"><path fill="none" stroke="#000000" d="M 536 710 L 622 555" stroke-miterlimit="10"/></g><g transform="translate(-38,-142) scale(1,1)"><path fill="#FFFFFF" stroke="none" d="M 619.5006751116182 576.8575702012441 L 622 555 L 604.7770743134762 568.6883465325976"/></g><g transform="translate(-38,-142) scale(1,1)"><path fill="none" stroke="#000000" d="M 619.5006751116182 576.8575702012441 L 622 555 L 604.7770743134762 568.6883465325976 L 619.5006751116182 576.8575702012441" stroke-miterlimit="10"/></g><g transform="translate(-38,-142) scale(1,1)"><path fill="none" stroke="#000000" d="M 647 710 L 655 555" stroke-miterlimit="10"/></g><g transform="translate(-38,-142) scale(1,1)"><path fill="#FFFFFF" stroke="none" d="M 662.3601883516252 575.7322846649519 L 655 555 L 645.5445000181671 574.8643781703219"/></g><g transform="translate(-38,-142) scale(1,1)"><path fill="none" stroke="#000000" d="M 662.3601883516252 575.7322846649519 L 655 555 L 645.5445000181671 574.8643781703219 L 662.3601883516252 575.7322846649519" stroke-miterlimit="10"/></g><g transform="translate(-38,-142) scale(1,1)"><path fill="none" stroke="#000000" d="M 760 710 L 689 555" stroke-miterlimit="10"/></g><g transform="translate(-38,-142) scale(1,1)"><path fill="#FFFFFF" stroke="none" d="M 705.118775573731 569.9728111590207 L 689 555 L 689.8103192086402 576.9850718165784"/></g><g transform="translate(-38,-142) scale(1,1)"><path fill="none" stroke="#000000" d="M 705.118775573731 569.9728111590207 L 689 555 L 689.8103192086402 576.9850718165784 L 705.118775573731 569.9728111590207" stroke-miterlimit="10"/></g><g transform="translate(-38,-142) scale(1,1)"><rect fill="#C0C0C0" stroke="none" x="183" y="239" width="144" height="80" opacity="0.2"/></g><g transform="translate(-38,-142) scale(1,1)"><rect fill="#ffffff" stroke="none" x="176" y="232" width="144" height="80"/></g><g transform="translate(-38,-142) scale(1,1)"><path fill="none" stroke="#000000" d="M 176 232 L 320 232 L 320 312 L 176 312 L 176 232 Z Z" stroke-miterlimit="10"/></g><g transform="translate(-38,-142) scale(1,1)"><path fill="#ffffff" stroke="none" d="M 294 249 C 294 244.0294368 298.0294368 240 303 240 C 307.9705632 240 312 244.0294368 312 249 C 312 253.9705632 307.9705632 258 303 258 C 298.0294368 258 294 253.9705632 294 249 Z"/></g><g transform="translate(-38,-142) scale(1,1)"><path fill="none" stroke="#000000" d="M 294 249 C 294 244.0294368 298.0294368 240 303 240 C 307.9705632 240 312 244.0294368 312 249 C 312 253.9705632 307.9705632 258 303 258 C 298.0294368 258 294 253.9705632 294 249 Z" stroke-miterlimit="10"/></g><g transform="translate(-38,-142) scale(1,1)"><path fill="none" stroke="#000000" d="M 176 270 L 320 270" stroke-miterlimit="10"/></g><g transform="translate(-38,-142) scale(1,1)"><g><path fill="none" stroke="none"/><text fill="#000000" stroke="none" font-family="Arial" font-size="13px" font-style="normal" font-weight="normal" text-decoration="none" x="203.839599609375" y="249.5">«interface»</text></g></g><g transform="translate(-38,-142) scale(1,1)"><g><path fill="none" stroke="none"/><text fill="#000000" stroke="none" font-family="Arial" font-size="13px" font-style="normal" font-weight="bold" text-decoration="none" x="189.392333984375" y="264.5">ReadsResource</text></g></g><g transform="translate(-38,-142) scale(1,1)"><g><path fill="none" stroke="none"/><text fill="#000000" stroke="none" font-family="Arial" font-size="13px" font-style="normal" font-weight="normal" text-decoration="none" x="181" y="287.5">+read(): String</text></g></g><g transform="translate(-38,-142) scale(1,1)"><rect fill="#C0C0C0" stroke="none" x="191" y="447" width="131.43359375" height="100" opacity="0.2"/></g><g transform="translate(-38,-142) scale(1,1)"><rect fill="#ffffff" stroke="none" x="184" y="440" width="131.43359375" height="100"/></g><g transform="translate(-38,-142) scale(1,1)"><path fill="none" stroke="#000000" d="M 184 440 L 315.43359375 440 L 315.43359375 540 L 184 540 L 184 440 Z Z" stroke-miterlimit="10"/></g><g transform="translate(-38,-142) scale(1,1)"><path fill="none" stroke="#000000" d="M 184 465 L 315.43359375 465" stroke-miterlimit="10"/></g><g transform="translate(-38,-142) scale(1,1)"><path fill="none" stroke="#000000" d="M 184 488 L 315.43359375 488" stroke-miterlimit="10"/></g><g transform="translate(-38,-142) scale(1,1)"><g><path fill="none" stroke="none"/><text fill="#000000" stroke="none" font-family="Arial" font-size="13px" font-style="italic" font-weight="bold" text-decoration="none" x="198.056396484375" y="459.5">AbstractResource</text></g></g><g transform="translate(-38,-142) scale(1,1)"><g><path fill="none" stroke="none"/><text fill="#000000" stroke="none" font-family="Arial" font-size="13px" font-style="normal" font-weight="normal" text-decoration="none" x="189" y="482.5">-url: String</text></g></g><g transform="translate(-38,-142) scale(1,1)"><g><path fill="none" stroke="none"/><text fill="#000000" stroke="none" font-family="Arial" font-size="13px" font-style="italic" font-weight="normal" text-decoration="none" x="189" y="505.5">+read(): String</text></g></g><g transform="translate(-38,-142) scale(1,1)"><g><path fill="none" stroke="none"/><text fill="#000000" stroke="none" font-family="Arial" font-size="13px" font-style="italic" font-weight="normal" text-decoration="none" x="189" y="520.5">+assertUrl(String url)</text></g></g><g transform="translate(-38,-142) scale(1,1)"><g><path fill="none" stroke="none"/><text fill="#000000" stroke="none" font-family="Arial" font-size="13px" font-style="normal" font-weight="normal" text-decoration="none" x="189" y="535.5">+url(): String</text></g></g><g transform="translate(-38,-142) scale(1,1)"><rect fill="#C0C0C0" stroke="none" x="205" y="718" width="102.20263671875" height="48" opacity="0.2"/></g><g transform="translate(-38,-142) scale(1,1)"><rect fill="#ffffff" stroke="none" x="198" y="711" width="102.20263671875" height="48"/></g><g transform="translate(-38,-142) scale(1,1)"><path fill="none" stroke="#000000" d="M 198 711 L 300.20263671875 711 L 300.20263671875 759 L 198 759 L 198 711 Z Z" stroke-miterlimit="10"/></g><g transform="translate(-38,-142) scale(1,1)"><path fill="none" stroke="#000000" d="M 198 736 L 300.20263671875 736" stroke-miterlimit="10"/></g><g transform="translate(-38,-142) scale(1,1)"><path fill="none" stroke="#000000" d="M 198 746 L 300.20263671875 746" stroke-miterlimit="10"/></g><g transform="translate(-38,-142) scale(1,1)"><g><path fill="none" stroke="none"/><text fill="#000000" stroke="none" font-family="Arial" font-size="13px" font-style="normal" font-weight="bold" text-decoration="none" x="205.74365234375" y="730.5">LocalResource</text></g></g><g transform="translate(-38,-142) scale(1,1)"><rect fill="#C0C0C0" stroke="none" x="325" y="718" width="92.8017578125" height="44" opacity="0.2"/></g><g transform="translate(-38,-142) scale(1,1)"><rect fill="#ffffff" stroke="none" x="318" y="711" width="92.8017578125" height="44"/></g><g transform="translate(-38,-142) scale(1,1)"><path fill="none" stroke="#000000" d="M 318 711 L 410.8017578125 711 L 410.8017578125 755 L 318 755 L 318 711 Z Z" stroke-miterlimit="10"/></g><g transform="translate(-38,-142) scale(1,1)"><path fill="none" stroke="#000000" d="M 318 736 L 410.8017578125 736" stroke-miterlimit="10"/></g><g transform="translate(-38,-142) scale(1,1)"><path fill="none" stroke="#000000" d="M 318 746 L 410.8017578125 746" stroke-miterlimit="10"/></g><g transform="translate(-38,-142) scale(1,1)"><g><path fill="none" stroke="none"/><text fill="#000000" stroke="none" font-family="Arial" font-size="13px" font-style="normal" font-weight="bold" text-decoration="none" x="327.19091796875" y="730.5">FtpResource</text></g></g><g transform="translate(-38,-142) scale(1,1)"><rect fill="#C0C0C0" stroke="none" x="93" y="718" width="94.236328125" height="44" opacity="0.2"/></g><g transform="translate(-38,-142) scale(1,1)"><rect fill="#ffffff" stroke="none" x="86" y="711" width="94.236328125" height="44"/></g><g transform="translate(-38,-142) scale(1,1)"><path fill="none" stroke="#000000" d="M 86 711 L 180.236328125 711 L 180.236328125 755 L 86 755 L 86 711 Z Z" stroke-miterlimit="10"/></g><g transform="translate(-38,-142) scale(1,1)"><path fill="none" stroke="#000000" d="M 86 736 L 180.236328125 736" stroke-miterlimit="10"/></g><g transform="translate(-38,-142) scale(1,1)"><path fill="none" stroke="#000000" d="M 86 746 L 180.236328125 746" stroke-miterlimit="10"/></g><g transform="translate(-38,-142) scale(1,1)"><g><path fill="none" stroke="none"/><text fill="#000000" stroke="none" font-family="Arial" font-size="13px" font-style="normal" font-weight="bold" text-decoration="none" x="93.378662109375" y="730.5">HttpResource</text></g></g><g transform="translate(-38,-142) scale(1,1)"><rect fill="#C0C0C0" stroke="none" x="591" y="231" width="136" height="80" opacity="0.2"/></g><g transform="translate(-38,-142) scale(1,1)"><rect fill="#ffffff" stroke="none" x="584" y="224" width="136" height="80"/></g><g transform="translate(-38,-142) scale(1,1)"><path fill="none" stroke="#000000" d="M 584 224 L 720 224 L 720 304 L 584 304 L 584 224 Z Z" stroke-miterlimit="10"/></g><g transform="translate(-38,-142) scale(1,1)"><path fill="#ffffff" stroke="none" d="M 694 241 C 694 236.0294368 698.0294368 232 703 232 C 707.9705632 232 712 236.0294368 712 241 C 712 245.9705632 707.9705632 250 703 250 C 698.0294368 250 694 245.9705632 694 241 Z"/></g><g transform="translate(-38,-142) scale(1,1)"><path fill="none" stroke="#000000" d="M 694 241 C 694 236.0294368 698.0294368 232 703 232 C 707.9705632 232 712 236.0294368 712 241 C 712 245.9705632 707.9705632 250 703 250 C 698.0294368 250 694 245.9705632 694 241 Z" stroke-miterlimit="10"/></g><g transform="translate(-38,-142) scale(1,1)"><path fill="none" stroke="#000000" d="M 584 262 L 720 262" stroke-miterlimit="10"/></g><g transform="translate(-38,-142) scale(1,1)"><g><path fill="none" stroke="none"/><text fill="#000000" stroke="none" font-family="Arial" font-size="13px" font-style="normal" font-weight="normal" text-decoration="none" x="607.839599609375" y="241.5">«interface»</text></g></g><g transform="translate(-38,-142) scale(1,1)"><g><path fill="none" stroke="none"/><text fill="#000000" stroke="none" font-family="Arial" font-size="13px" font-style="normal" font-weight="bold" text-decoration="none" x="606.3955078125" y="256.5">ReadsFeed</text></g></g><g transform="translate(-38,-142) scale(1,1)"><g><path fill="none" stroke="none"/><text fill="#000000" stroke="none" font-family="Arial" font-size="13px" font-style="normal" font-weight="normal" text-decoration="none" x="589" y="279.5">+read(): Array</text></g></g><g transform="translate(-38,-142) scale(1,1)"><rect fill="#C0C0C0" stroke="none" x="495" y="431" width="342.48681640625" height="130" opacity="0.2"/></g><g transform="translate(-38,-142) scale(1,1)"><rect fill="#ffffff" stroke="none" x="488" y="424" width="342.48681640625" height="130"/></g><g transform="translate(-38,-142) scale(1,1)"><path fill="none" stroke="#000000" d="M 488 424 L 830.48681640625 424 L 830.48681640625 554 L 488 554 L 488 424 Z Z" stroke-miterlimit="10"/></g><g transform="translate(-38,-142) scale(1,1)"><path fill="none" stroke="#000000" d="M 488 449 L 830.48681640625 449" stroke-miterlimit="10"/></g><g transform="translate(-38,-142) scale(1,1)"><path fill="none" stroke="#000000" d="M 488 487 L 830.48681640625 487" stroke-miterlimit="10"/></g><g transform="translate(-38,-142) scale(1,1)"><g><path fill="none" stroke="none"/><text fill="#000000" stroke="none" font-family="Arial" font-size="13px" font-style="italic" font-weight="bold" text-decoration="none" x="599.267578125" y="443.5">AbstractFeedReader</text></g></g><g transform="translate(-38,-142) scale(1,1)"><g><path fill="none" stroke="none"/><text fill="#000000" stroke="none" font-family="Arial" font-size="13px" font-style="normal" font-weight="normal" text-decoration="none" x="493" y="466.5">-resource: ReadsResource</text></g></g><g transform="translate(-38,-142) scale(1,1)"><g><path fill="none" stroke="none"/><text fill="#000000" stroke="none" font-family="Arial" font-size="13px" font-style="normal" font-weight="normal" text-decoration="none" x="493" y="481.5">+separator: array</text></g></g><g transform="translate(-38,-142) scale(1,1)"><g><path fill="none" stroke="none"/><text fill="#000000" stroke="none" font-family="Arial" font-size="13px" font-style="italic" font-weight="normal" text-decoration="none" x="493" y="504.5">+read(): Array</text></g></g><g transform="translate(-38,-142) scale(1,1)"><g><path fill="none" stroke="none"/><text fill="#000000" stroke="none" font-family="Arial" font-size="13px" font-style="italic" font-weight="normal" text-decoration="none" x="493" y="519.5">+parseFeed(String feed): Array</text></g></g><g transform="translate(-38,-142) scale(1,1)"><g><path fill="none" stroke="none"/><text fill="#000000" stroke="none" font-family="Arial" font-size="13px" font-style="normal" font-weight="normal" text-decoration="none" x="493" y="534.5">+update(ReadsResource resource, Separator separator)</text></g></g><g transform="translate(-38,-142) scale(1,1)"><rect fill="#C0C0C0" stroke="none" x="477" y="718" width="107.26171875" height="44" opacity="0.2"/></g><g transform="translate(-38,-142) scale(1,1)"><rect fill="#ffffff" stroke="none" x="470" y="711" width="107.26171875" height="44"/></g><g transform="translate(-38,-142) scale(1,1)"><path fill="none" stroke="#000000" d="M 470 711 L 577.26171875 711 L 577.26171875 755 L 470 755 L 470 711 Z Z" stroke-miterlimit="10"/></g><g transform="translate(-38,-142) scale(1,1)"><path fill="none" stroke="#000000" d="M 470 736 L 577.26171875 736" stroke-miterlimit="10"/></g><g transform="translate(-38,-142) scale(1,1)"><path fill="none" stroke="#000000" d="M 470 746 L 577.26171875 746" stroke-miterlimit="10"/></g><g transform="translate(-38,-142) scale(1,1)"><g><path fill="none" stroke="none"/><text fill="#000000" stroke="none" font-family="Arial" font-size="13px" font-style="normal" font-weight="bold" text-decoration="none" x="476.302734375" y="730.5">XmlFeedReader</text></g></g><g transform="translate(-38,-142) scale(1,1)"><rect fill="#C0C0C0" stroke="none" x="725" y="718" width="107.26806640625" height="44" opacity="0.2"/></g><g transform="translate(-38,-142) scale(1,1)"><rect fill="#ffffff" stroke="none" x="718" y="711" width="107.26806640625" height="44"/></g><g transform="translate(-38,-142) scale(1,1)"><path fill="none" stroke="#000000" d="M 718 711 L 825.26806640625 711 L 825.26806640625 755 L 718 755 L 718 711 Z Z" stroke-miterlimit="10"/></g><g transform="translate(-38,-142) scale(1,1)"><path fill="none" stroke="#000000" d="M 718 736 L 825.26806640625 736" stroke-miterlimit="10"/></g><g transform="translate(-38,-142) scale(1,1)"><path fill="none" stroke="#000000" d="M 718 746 L 825.26806640625 746" stroke-miterlimit="10"/></g><g transform="translate(-38,-142) scale(1,1)"><g><path fill="none" stroke="none"/><text fill="#000000" stroke="none" font-family="Arial" font-size="13px" font-style="normal" font-weight="bold" text-decoration="none" x="724.305908203125" y="730.5">CsvFeedReader</text></g></g><g transform="translate(-38,-142) scale(1,1)"><rect fill="#C0C0C0" stroke="none" x="597" y="718" width="113.76171875" height="44" opacity="0.2"/></g><g transform="translate(-38,-142) scale(1,1)"><rect fill="#ffffff" stroke="none" x="590" y="711" width="113.76171875" height="44"/></g><g transform="translate(-38,-142) scale(1,1)"><path fill="none" stroke="#000000" d="M 590 711 L 703.76171875 711 L 703.76171875 755 L 590 755 L 590 711 Z Z" stroke-miterlimit="10"/></g><g transform="translate(-38,-142) scale(1,1)"><path fill="none" stroke="#000000" d="M 590 736 L 703.76171875 736" stroke-miterlimit="10"/></g><g transform="translate(-38,-142) scale(1,1)"><path fill="none" stroke="#000000" d="M 590 746 L 703.76171875 746" stroke-miterlimit="10"/></g><g transform="translate(-38,-142) scale(1,1)"><g><path fill="none" stroke="none"/><text fill="#000000" stroke="none" font-family="Arial" font-size="13px" font-style="normal" font-weight="bold" text-decoration="none" x="597.016845703125" y="730.5">JsonFeedReader</text></g></g><g transform="translate(-38,-142) scale(1,1)"><rect fill="#C0C0C0" stroke="none" x="399" y="311" width="97.87353515625" height="87" opacity="0.2"/></g><g transform="translate(-38,-142) scale(1,1)"><rect fill="#ffffff" stroke="none" x="392" y="304" width="97.87353515625" height="87"/></g><g transform="translate(-38,-142) scale(1,1)"><path fill="none" stroke="#000000" d="M 392 304 L 489.87353515625 304 L 489.87353515625 391 L 392 391 L 392 304 Z Z" stroke-miterlimit="10"/></g><g transform="translate(-38,-142) scale(1,1)"><path fill="none" stroke="#000000" d="M 392 329 L 489.87353515625 329" stroke-miterlimit="10"/></g><g transform="translate(-38,-142) scale(1,1)"><path fill="none" stroke="#000000" d="M 392 382 L 489.87353515625 382" stroke-miterlimit="10"/></g><g transform="translate(-38,-142) scale(1,1)"><g><path fill="none" stroke="none"/><text fill="#000000" stroke="none" font-family="Arial" font-size="13px" font-style="normal" font-weight="bold" text-decoration="none" x="412.391357421875" y="323.5">Separator</text></g></g><g transform="translate(-38,-142) scale(1,1)"><g><path fill="none" stroke="none"/><text fill="#000000" stroke="none" font-family="Arial" font-size="13px" font-style="normal" font-weight="normal" text-decoration="none" x="397" y="346.5">-feed: String</text></g></g><g transform="translate(-38,-142) scale(1,1)"><g><path fill="none" stroke="none"/><text fill="#000000" stroke="none" font-family="Arial" font-size="13px" font-style="normal" font-weight="normal" text-decoration="none" x="397" y="361.5">-field String</text></g></g><g transform="translate(-38,-142) scale(1,1)"><g><path fill="none" stroke="none"/><text fill="#000000" stroke="none" font-family="Arial" font-size="13px" font-style="normal" font-weight="normal" text-decoration="none" x="397" y="376.5">-feeds: String</text></g></g><g transform="translate(-38,-142) scale(1,1)"><path fill="none" stroke="#000000" d="M 557 423 L 491 380" stroke-miterlimit="10" stroke-dasharray="3"/></g><g transform="translate(-38,-142) scale(1,1)"><path fill="none" stroke="#000000" d="M 501.8128233986538 382.0206063816402 L 491 380 L 497.21703627439405 389.07460522352727" stroke-miterlimit="10"/></g></g></svg>